<svg version="1.1"
	 id="Layer_1" xmlns:inkscape="http://www.inkscape.org/namespaces/inkscape" xmlns:sodipodi="http://sodipodi.sourceforge.net/DTD/sodipodi-0.dtd" xmlns:rdf="http://www.w3.org/1999/02/22-rdf-syntax-ns#" xmlns:svg="http://www.w3.org/2000/svg" xmlns:dc="http://purl.org/dc/elements/1.1/" xmlns:cc="http://creativecommons.org/ns#"
	 xmlns="http://www.w3.org/2000/svg" xmlns:xlink="http://www.w3.org/1999/xlink" x="0px" y="0px" viewBox="0 0 83.5 84.8"
	 style="enable-background:new 0 0 83.5 84.8;" xml:space="preserve">
<style type="text/css">
	.st0{fill:none;}
	.st1{fill:#E5C53C;}
</style>
<g transform="translate(0,-952.36218)">
	<rect y="952.4" class="st0" width="83.5" height="84.8"/>
	<polygon class="st1" points="2,988.6 2,999.7 6.3,1006.6 12.7,1011.7 21.9,1015.2 20.6,1023.1 26.2,1024.9 26.6,1026.5 
		38.4,1026.5 37.6,1023 39.4,1017.7 48.8,1016.6 58.3,1014 54.6,1019.6 57.6,1020.9 56.6,1023.6 68.7,1022.8 67.7,1015.9 
		70.9,1003.9 77.8,996.2 81.6,986.5 82.7,978 81.9,970.5 78.2,964.6 72.5,961.6 66.3,960.6 61.6,962.5 57.7,965.6 58.3,970.1 
		61.1,971.9 64.7,973.2 71.5,971.9 73.7,981 67.7,986.9 50.1,989.8 39.6,994.5 28.7,1000.2 22,1002.5 13,1001.2 7.1,995.7 
		2.8,988.1 	"/>
	<path d="M60.9,961.7c-2.4,1.4-4.2,3.4-4.2,5.9c0.1,3.1,2.2,4.9,4.7,5.6c2.5,0.6,5.8,0.3,9.5-0.5c1,3.5,1.3,6,0.8,7.8
		c-0.5,1.9-1.7,3.1-3.7,4.1c-4.1,2-11.8,2.9-21.9,5.5c-5.2,1.7-10.1,4.5-14.3,6.8c-4.3,2.4-8,4.3-10.6,4.3c-4.8,0-8.5-1.4-11.5-4.2
		c-3-2.7-5.1-6.9-6.6-12.3c-0.1-0.5-0.6-0.8-1.1-0.8c-0.5,0-0.9,0.4-0.9,0.9c-1,9.2-0.3,16.1,3.6,21.4c3.2,4.3,8.4,7.3,16.1,9.7
		c0.9,2.6,0,5.3-1,7.2c-0.2,0.4-0.1,0.9,0.2,1.2c0.8,0.8,1.9,1,3,1.2c0.8,0.1,1.7,0.1,2.5,0.1c-0.4,1,0.1,1.6,0.7,2h12.1
		c0.6,0,1.2-0.7,1-1.3c-0.9-2.8-0.9-4.4,0.7-7.9c5.7,0,10.7-0.7,15.9-2.9c-0.4,1.4-1.6,2.5-2.2,3.6c-0.2,1.4,1.3,2,2.4,2.4
		c-0.2,0.5-0.4,1-0.7,1.5c-0.3,0.6,0.2,1.4,0.9,1.4h12.1c0.5,0,1-0.5,1-1c0-2.2-0.7-5.4-1-8c1.8-3.7,2.9-6.2,3-11.8
		c6.7-5,10.8-15.3,11.2-24.8c0.2-4.8-0.6-9.5-2.7-13c-2.1-3.6-5.6-6-10.4-6.3C65.7,959.6,63.3,960.4,60.9,961.7L60.9,961.7z
		 M69.5,961.6c4.2,0.3,7,2.2,8.8,5.3c1.8,3.1,2.6,7.3,2.4,11.9c-0.4,9.1-4.6,19.3-10.7,23.6c-0.3,0.2-0.4,0.5-0.4,0.8
		c0,6-0.9,7.7-2.9,11.8c-0.1,0.2-0.1,0.4-0.1,0.6c0.3,2.4,0.7,5.1,0.9,7h-9.5c1.4-3.5,1.5-6.5,1.5-9.2c0-0.7-0.9-1.2-1.5-0.9
		c-6.2,3.3-11.7,3.9-18.6,3.9c-0.4,0-0.7,0.2-0.9,0.6c-1.8,3.6-2,6-1.4,8.6h-9.6c0.7-2.8,0.7-5.8-0.2-9.4c-0.1-0.3-0.4-0.6-0.7-0.7
		C16,1013,9.7,1009.7,6.3,1005c-2.8-3.8-3.7-8.8-3.5-15.5c1.4,3.6,3.1,6.7,5.5,8.9c3.3,3.1,7.6,4.7,12.9,4.7c3.5,0,7.3-2.2,11.6-4.6
		c4.3-2.4,9-5.1,13.8-6.6c7.4-2.4,15.8-2.5,22.3-5.6c2.4-1.2,4.1-2.9,4.8-5.4c0.6-2.5,0.3-5.6-1-9.7c-0.2-0.5-0.7-0.8-1.2-0.7
		c-3.9,1-7.3,1.2-9.5,0.6c-2-0.5-3.2-1.9-3.2-3.7c0-1.5,1.2-3,3.2-4.2C64,962.2,66.6,961.6,69.5,961.6L69.5,961.6z M68.7,964.6
		c-0.6,0-1,0.4-1,1s0.4,1,1,1c0.6,0,1-0.4,1-1S69.3,964.6,68.7,964.6z M23,1016.6c0.8,0.2,1.6,0.4,2.4,0.7c0.6,2.4,0.7,4.5,0.5,6.4
		c-0.9,0-1.8,0-2.6-0.1c-0.7-0.1-1-0.3-1.3-0.4C22.7,1021.3,23.4,1019,23,1016.6z M57.2,1017.7c-0.1,0.6-0.2,1.3-0.3,1.9
		c-0.3,0.1-0.6-0.1-0.8-0.2C56.4,1018.8,56.8,1018.2,57.2,1017.7z"/>
</g>
</svg>
